Coordinates
version=1
nRows=4
nColumns=107
inDegrees=yes

Units are S.I. units (second, meters, Newtons, ...)
If the header above contains a line with 'inDegrees', this indicates whether rotational values are in degrees (yes) or radians (no).

endheader
time	sternoclavicular_r2	sternoclavicular_r3	unrotscap_r3	unrotscap_r2	acromioclavicular_r2	acromioclavicular_r3	acromioclavicular_r1	unrothum_r1	unrothum_r3	unrothum_r2	elv_angle	shoulder_elv	shoulder1_r2	shoulder_rot	elbow_flexion	pro_sup	deviation	flexion	proximal_distal_r1	proximal_distal_r3	cmc_flexion	cmc_abduction	mp_flexion	ip_flexion	mcp2_flexion	mcp2_abduction	pm2_flexion	md2_flexion	mcp3_flexion	mcp3_abduction	pm3_flexion	md3_flexion	mcp4_flexion	mcp4_abduction	pm4_flexion	md4_flexion	mcp5_flexion	mcp5_abduction	pm5_flexion	md5_flexion	bicpt_tx	bicpt_ty	bicpt_tz	bicpt2_tx	bicpt2_ty	bicpt2_tz	ptpt_tx	ptpt_ty	ptpt_tz	FCUpt_tx	FCUpt_ty	FCUpt_tz	EDCpt_tx	EDCpt_ty	EDCpt_tz	APLpt_tx	APLpt_ty	APLpt_tz	FPLpt_tx	FPLpt_ty	FPLpt_tz	FPLpt2_tx	FPLpt2_ty	FPLpt2_tz	PEC1pt2_tx	PEC1pt2_ty	PEC1pt2_tz	PEC1pt3_tx	PEC1pt3_ty	PEC1pt3_tz	PEC2pt2_tx	PEC2pt2_ty	PEC2pt2_tz	PEC2pt3_tx	PEC2pt3_ty	PEC2pt3_tz	PEC3pt2_tx	PEC3pt2_ty	PEC3pt2_tz	PEC3pt3_tx	PEC3pt3_ty	PEC3pt3_tz	DELT2pt2a_tx	DELT2pt2a_ty	DELT2pt2a_tz	DELT2pt2_tx	DELT2pt2_ty	DELT2pt2_tz	LAT1pt2_tx	LAT1pt2_ty	LAT1pt2_tz	LAT1pt3_tx	LAT1pt3_ty	LAT1pt3_tz	LAT2pt2_tx	LAT2pt2_ty	LAT2pt2_tz	LAT2pt3_tx	LAT2pt3_ty	LAT2pt3_tz	LAT3pt2_tx	LAT3pt2_ty	LAT3pt2_tz	LAT3pt3_tx	LAT3pt3_ty	LAT3pt3_tz
      1.06666667	     -0.31135925	      0.13187708	     -0.13187708	      0.31135925	     -0.06304392	      0.50949875	      0.22901618	     -0.22901618	     -0.50949875	      0.06304392	    101.53087437	     73.71707100	     -1.77204805	    -38.44733757	     31.97548411	     83.19813604	      0.34221876	     -0.70457441	      0.36858082	     -0.35228721	     39.30690316	    -21.19418701	     -2.84143544	      2.36376410	     69.97842031	     13.52191036	     70.63483426	     81.51975969	     80.22069676	      3.64807539	     75.37563444	     53.72448110	     77.70918977	    -13.12365748	     83.76956475	     40.80039445	     84.76626701	    -14.28014717	     78.64464571	      5.48306784	      0.00095765	     -0.03126488	     -0.00489032	      0.01452055	     -0.01888630	     -0.00155035	      0.00140260	     -0.06887501	     -0.00675206	      0.01241735	     -0.18233150	      0.00000958	     -0.00998375	      0.00342547	     -0.00066938	      0.00030515	      0.00012206	      0.00061029	      0.00039059	      0.00117176	      0.00065912	     -0.00001124	     -0.00012432	     -0.00014919	      0.00241628	      0.00847747	      0.00589737	     -0.00790411	      0.01908455	     -0.01810165	      0.00241628	      0.00847747	      0.00589737	      0.00053240	      0.01769211	     -0.00929655	      0.00385410	      0.00471421	      0.01573369	      0.00000000	      0.00726436	      0.00000000	     -0.00692122	     -0.03198505	     -0.00598675	      0.02214549	     -0.00105450	     -0.01200925	     -0.00086003	      0.01441579	     -0.00589737	      0.00237533	      0.02080461	     -0.01720066	     -0.00577451	      0.01249096	     -0.00528306	     -0.01204047	      0.02637435	     -0.02952781	     -0.02260659	      0.01396530	     -0.00708504	     -0.01498915	      0.03046975	     -0.03689952
      1.10000000	     -0.31163873	      0.13199546	     -0.13199546	      0.31163873	     -0.06310050	      0.50995607	      0.22922174	     -0.22922174	     -0.50995607	      0.06310050	    101.41284201	     73.78323878	     -1.76998800	    -37.78906035	     32.04639240	     83.36272379	      0.35420104	     -0.64738231	      0.37801222	     -0.32369116	     38.93826521	    -20.96234190	     -3.62245059	      2.05904772	     64.41844767	     13.54331932	     67.15308915	     79.34967114	     74.74940233	      4.07723623	     72.49517751	     51.02017198	     72.23065086	    -12.79368710	     79.65609776	     40.10989985	     78.48001231	    -14.29388519	     73.94280397	      5.46776432	      0.00096000	     -0.03127301	     -0.00489163	      0.01450458	     -0.01890556	     -0.00152280	      0.00139044	     -0.06888288	     -0.00676531	      0.01243611	     -0.18232606	      0.00001377	     -0.01000350	      0.00343436	     -0.00067442	      0.00031138	      0.00012455	      0.00062277	      0.00039857	      0.00119572	      0.00067259	     -0.00001158	     -0.00013113	     -0.00015736	      0.00241845	      0.00848508	      0.00590266	     -0.00791121	      0.01910168	     -0.01811790	      0.00241845	      0.00848508	      0.00590266	      0.00053288	      0.01770799	     -0.00930489	      0.00385666	      0.00471845	      0.01574020	      0.00000000	      0.00727749	      0.00000000	     -0.00692743	     -0.03201375	     -0.00599765	      0.02192529	     -0.00103075	     -0.01163155	     -0.00086081	      0.01442873	     -0.00590266	      0.00237746	      0.02082329	     -0.01721610	     -0.00577969	      0.01250217	     -0.00528780	     -0.01205127	      0.02639803	     -0.02955431	     -0.02262688	      0.01397784	     -0.00709140	     -0.01500260	      0.03049710	     -0.03693264
      1.13333333	     -0.31036138	      0.13145443	     -0.13145443	      0.31036138	     -0.06284187	      0.50786585	      0.22828220	     -0.22828220	     -0.50786585	      0.06284187	    101.61054997	     73.48081431	     -1.77343865	    -38.79060661	     32.53130255	     84.35285287	      0.34364703	     -0.59739384	      0.36971737	     -0.29869692	     38.31656213	    -20.42314773	     -4.50122551	      2.23076983	     57.50782142	     13.54593225	     60.68359951	     76.19910922	     67.55524532	      4.36618272	     68.10118343	     48.60157686	     64.53209759	    -12.11214377	     74.41847579	     39.06995500	     69.93237281	    -14.31584350	     67.25831724	      5.50661389	      0.00097603	     -0.03132858	     -0.00490058	      0.01440712	     -0.01903729	     -0.00135624	      0.00131728	     -0.06893018	     -0.00684508	      0.01254919	     -0.18229314	      0.00003943	     -0.01012232	      0.00348804	     -0.00070505	      0.00031236	      0.00012495	      0.00062473	      0.00039982	      0.00119947	      0.00067470	     -0.00001207	     -0.00014229	     -0.00017075	      0.00240854	      0.00845030	      0.00587847	     -0.00787878	      0.01902338	     -0.01804364	      0.00240854	      0.00845030	      0.00587847	      0.00053070	      0.01763541	     -0.00926675	      0.00384493	      0.00469910	      0.01571035	      0.00000000	      0.00721758	      0.00000000	     -0.00689904	     -0.03188254	     -0.00594789	      0.02225818	     -0.00106692	     -0.01220766	     -0.00085728	      0.01436959	     -0.00587847	      0.00236772	      0.02073794	     -0.01714554	     -0.00575600	      0.01245093	     -0.00526613	     -0.01200188	      0.02628982	     -0.02943317	     -0.02253414	      0.01392054	     -0.00706233	     -0.01494111	      0.03037210	     -0.03678126
      1.16666667	     -0.30979452	      0.13121434	     -0.13121434	      0.30979452	     -0.06272709	      0.50693826	      0.22786526	     -0.22786526	     -0.50693826	      0.06272709	    101.77029245	     73.34660574	     -1.77622668	    -39.29503803	     32.50917997	     83.98546567	      0.31239408	     -0.60154865	      0.34408466	     -0.30077432	     38.23018467	    -20.27575461	     -5.48188107	      1.79512637	     48.72037135	     13.50818507	     54.63419123	     74.21261076	     58.77687641	      4.64416822	     61.65856260	     46.30817071	     55.88772690	    -10.65340184	     66.99769312	     36.98311607	     59.67634479	    -14.34253356	     59.89915221	      5.28002993	      0.00097530	     -0.03132605	     -0.00490017	      0.01444351	     -0.01903128	     -0.00141818	      0.00134442	     -0.06891263	     -0.00681548	      0.01250721	     -0.18230538	      0.00002984	     -0.01007823	      0.00346809	     -0.00069363	      0.00031244	      0.00012497	      0.00062487	      0.00039992	      0.00119975	      0.00067486	     -0.00001212	     -0.00014378	     -0.00017254	      0.00240414	      0.00843487	      0.00586773	     -0.00786439	      0.01898864	     -0.01801068	      0.00240414	      0.00843487	      0.00586773	      0.00052973	      0.01760320	     -0.00924983	      0.00383972	      0.00469052	      0.01569704	      0.00000000	      0.00719108	      0.00000000	     -0.00688644	     -0.03182430	     -0.00592587	      0.02242093	     -0.00108521	     -0.01250114	     -0.00085571	      0.01434335	     -0.00586773	      0.00236339	      0.02070006	     -0.01711422	     -0.00574549	      0.01242819	     -0.00525651	     -0.01197996	      0.02624181	     -0.02937942	     -0.02249298	      0.01389512	     -0.00704943	     -0.01491382	      0.03031662	     -0.03671408
